<svg width="367" height="295" viewBox="0 0 367 295" fill="none" xmlns="http://www.w3.org/2000/svg">
<path d="M248.378 141.247C268.953 147.268 282.756 164.985 281.368 183.941C274.831 176.612 264.847 170.286 252.754 166.126L248.378 141.247ZM312.058 169.969L330.253 66.5413C330.419 65.6079 330.092 65.0318 330.115 65.0145C296.994 46.5426 259.514 36.7766 221.731 36.7766C220.808 36.7766 219.879 36.8746 218.95 36.8861C210.95 29.1251 200.755 23.7322 189.366 21.9058C178.534 20.1658 167.547 19.2842 156.577 18.8406C162.306 10.8031 170.615 4.88012 180.53 3.28414C194.24 1.08895 208.02 0 221.737 0C265.696 0 309.07 11.1891 347.961 32.876C361.821 40.6081 369.246 56.7407 366.397 72.931L348.201 176.358C340.042 222.751 270.025 258.22 230.963 258.22C228.904 258.22 227.092 257.955 225.223 257.759C232.976 247.918 241.818 234.436 247.874 218.822C275.175 211.343 308.692 189.08 312.058 169.969ZM256.12 90.7691C256.538 88.3953 257.398 86.2346 258.453 84.2008C263.184 89.3344 270.306 93.2754 278.707 94.7561C287.108 96.2426 295.147 94.9866 301.346 91.7774C301.644 94.0474 301.713 96.3752 301.295 98.749C299.093 111.252 287.2 119.6 274.722 117.399C262.25 115.198 253.918 103.272 256.12 90.7691ZM19.0394 69.6584C70.0635 41.2073 128.812 30.8191 186.47 40.0723C202.131 42.5844 214.614 55.2024 217.459 71.3926L235.654 174.82C244.479 224.975 181.017 287.904 144.874 294.288C108.73 300.678 27.6237 263.296 18.7986 213.141L0.60351 109.713C-2.24645 93.5174 5.17952 77.3847 19.0394 69.6584ZM175.724 125.431C173.522 112.928 161.629 104.58 149.151 106.786C136.673 108.993 128.347 120.914 130.543 133.417C130.962 135.791 131.822 137.951 132.877 139.985C137.608 134.851 144.73 130.91 153.131 129.43C161.532 127.943 169.571 129.199 175.77 132.409C176.074 130.133 176.143 127.805 175.724 125.431ZM135.314 239.95C167.243 234.309 188.942 205.8 186.373 174.901C174.56 189.616 154.14 201.502 129.322 205.887C104.504 210.271 81.2569 206.1 65.1377 196.323C73.269 226.249 103.391 245.59 135.314 239.95ZM60.5961 152.753C65.3269 147.619 72.4547 143.678 80.8555 142.198C89.2563 140.711 97.2958 141.967 103.495 145.176C103.793 142.906 103.862 140.579 103.443 138.205C101.241 125.702 89.348 117.353 76.8701 119.554C64.3979 121.761 56.066 133.682 58.2622 146.185C58.6808 148.564 59.541 150.725 60.5961 152.753Z" fill="#E02041"/>
</svg>
