<svg width="175" height="40" viewBox="0 0 175 40" fill="none" xmlns="http://www.w3.org/2000/svg">
<path d="M37.3268 4.68354C38.1115 4.79606 38.6439 5.03516 38.9241 5.40084C39.2324 5.76653 39.3865 6.24473 39.3865 6.83544C39.3865 8.77637 38.3497 9.67651 36.276 9.53587L34.8047 9.40928C33.1514 9.26864 31.498 9.15612 29.8446 9.07173C28.2193 8.98734 26.5099 8.94515 24.7164 8.94515H22.8248C22.4886 13.1083 22.1383 16.9058 21.774 20.3376L29.004 20.211C30.0408 20.211 30.7274 20.3938 31.0636 20.7595C31.428 21.1252 31.6101 21.6174 31.6101 22.2363C31.6101 23.1927 31.3299 23.9522 30.7694 24.5148C30.2089 25.0492 29.4103 25.3165 28.3734 25.3165H21.1855L20.9333 27.1308C20.3448 31.7722 19.0838 35.0774 17.1502 37.0464C15.2446 39.0155 12.6104 40 9.24764 40C7.34206 40 5.59062 39.5921 3.9933 38.7764C2.39598 37.9325 1.21901 36.9198 0.462382 35.7384C0.154127 35.2602 0 34.6835 0 34.0084C0 33.3333 0.154127 32.7426 0.462382 32.2363C0.798659 31.73 1.20499 31.4768 1.68139 31.4768C2.01767 31.4768 2.33993 31.5893 2.64819 31.8143C2.98446 32.0394 3.40481 32.4754 3.90923 33.1224C5.25434 34.8945 6.92172 35.7806 8.91136 35.7806C10.5087 35.7806 11.8398 35.1336 12.9047 33.8397C13.9976 32.5176 14.6981 30.4501 15.0064 27.6371L15.2586 25.3165H13.2409C12.5964 25.3165 12.0359 25.1336 11.5595 24.7679C11.1112 24.4023 10.887 23.8819 10.887 23.2067C10.887 22.3347 11.1112 21.6737 11.5595 21.2236C12.0079 20.7454 12.6665 20.5063 13.5352 20.5063C14.3198 20.5063 15.0905 20.4923 15.8471 20.4641C16.1834 17.3699 16.5477 13.6146 16.94 9.19831C13.9135 9.47961 11.7837 9.97187 10.5507 10.6751C9.31769 11.3783 8.70119 12.4191 8.70119 13.7975C8.70119 14.7539 8.98142 15.6681 9.54188 16.5401C9.71002 16.7932 9.79409 17.0464 9.79409 17.2996C9.79409 17.8059 9.51386 18.256 8.95339 18.6498C8.39293 19.0155 7.76241 19.1983 7.06183 19.1983C6.30521 19.1983 5.66067 18.9733 5.12823 18.5232C4.79196 18.2419 4.46969 17.6653 4.16144 16.7932C3.85318 15.9212 3.69905 14.9508 3.69905 13.8819C3.69905 10.3938 5.47852 7.86217 9.03746 6.28692C12.6244 4.71167 17.8507 3.92405 24.7164 3.92405C29.4803 3.92405 33.6838 4.17722 37.3268 4.68354Z" fill="#E02041"/>
<path d="M37.4913 17.2152C36.3144 17.2152 35.4316 16.948 34.8432 16.4135C34.2547 15.8509 33.9604 15.0774 33.9604 14.0928C33.9604 13.1083 34.3387 12.2925 35.0954 11.6456C35.88 10.9705 36.8468 10.6329 37.9958 10.6329C39.0326 10.6329 39.8733 10.8861 40.5178 11.3924C41.1624 11.8987 41.4846 12.616 41.4846 13.5443C41.4846 14.6695 41.1203 15.5696 40.3917 16.2447C39.6631 16.8917 38.6963 17.2152 37.4913 17.2152ZM37.1551 39.8734C35.3336 39.8734 34.0025 39.2264 33.1618 37.9325C32.3491 36.6385 31.9428 34.9226 31.9428 32.7848C31.9428 31.519 32.0969 29.9015 32.4051 27.9325C32.7414 25.9353 33.1618 24.0788 33.6662 22.3629C33.9184 21.4627 34.2547 20.8439 34.675 20.5063C35.0954 20.1688 35.7679 20 36.6927 20C38.1219 20 38.8365 20.4782 38.8365 21.4346C38.8365 22.1378 38.5702 23.7693 38.0378 26.3291C37.3652 29.4233 37.029 31.519 37.029 32.616C37.029 33.4599 37.1411 34.1069 37.3652 34.557C37.5894 35.007 37.9677 35.2321 38.5002 35.2321C39.0046 35.2321 39.6351 34.8804 40.3917 34.1772C41.1484 33.474 42.1572 32.3629 43.4182 30.8439C43.7545 30.4501 44.1328 30.2532 44.5532 30.2532C44.9175 30.2532 45.1977 30.4219 45.3939 30.7595C45.6181 31.097 45.7301 31.5612 45.7301 32.1519C45.7301 33.2771 45.4639 34.1491 44.9315 34.7679C42.1572 38.1716 39.5651 39.8734 37.1551 39.8734Z" fill="#E02041"/>
<path d="M58.2604 30.2532C58.6247 30.2532 58.905 30.4219 59.1011 30.7595C59.3253 31.097 59.4374 31.5612 59.4374 32.1519C59.4374 33.2771 59.1712 34.1491 58.6387 34.7679C57.4338 36.2588 56.1167 37.4824 54.6875 38.4388C53.2863 39.3952 51.689 39.8734 49.8955 39.8734C47.4295 39.8734 45.594 38.7482 44.389 36.4979C43.212 34.2475 42.6235 31.3361 42.6235 27.7637C42.6235 24.3319 43.0579 20.4219 43.9266 16.0338C44.8233 11.6456 46.1264 7.87623 47.8358 4.72574C49.5733 1.57525 51.633 0 54.0149 0C55.36 0 56.4109 0.632912 57.1675 1.89874C57.9522 3.13643 58.3445 4.92264 58.3445 7.25738C58.3445 10.6048 57.4197 14.4866 55.5702 18.903C53.7207 23.3193 51.2126 27.6934 48.046 32.0253C48.2422 33.1786 48.5644 34.0084 49.0128 34.5148C49.4612 34.993 50.0497 35.2321 50.7783 35.2321C51.9272 35.2321 52.936 34.9086 53.8048 34.2616C54.6735 33.5865 55.7804 32.4473 57.1255 30.8439C57.4618 30.4501 57.8401 30.2532 58.2604 30.2532ZM53.0902 4.17722C52.4456 4.17722 51.717 5.34459 50.9044 7.67933C50.0917 10.0141 49.3771 12.9114 48.7606 16.3713C48.1441 19.8312 47.8078 23.1505 47.7518 26.3291C49.7414 23.038 51.3247 19.7468 52.5017 16.4557C53.6787 13.1364 54.2671 10.1125 54.2671 7.38397C54.2671 5.24613 53.8748 4.17722 53.0902 4.17722Z" fill="#E02041"/>
<path d="M59.0243 39.8734C57.9594 39.8734 57.2028 39.3108 56.7544 38.1857C56.3341 37.0605 56.1239 35.2602 56.1239 32.7848C56.1239 29.128 56.6423 25.654 57.6792 22.3629C57.9314 21.5471 58.3377 20.9564 58.8982 20.5907C59.4867 20.1969 60.2993 20 61.3362 20C61.8967 20 62.289 20.0703 62.5132 20.211C62.7374 20.3516 62.8494 20.6188 62.8494 21.0127C62.8494 21.4627 62.6393 22.4754 62.2189 24.0506C61.9387 25.1758 61.7145 26.1603 61.5464 27.0042C61.3782 27.82 61.2381 28.8467 61.126 30.0844C61.8826 27.8903 62.7794 26.0338 63.8162 24.5148C64.8811 22.9958 65.96 21.8706 67.0529 21.1392C68.1738 20.3797 69.2247 20 70.2055 20C71.1863 20 71.8729 20.225 72.2652 20.6751C72.6856 21.1252 72.8957 21.8143 72.8957 22.7426C72.8957 23.6428 72.6295 25.2743 72.0971 27.6371C71.8729 28.6498 71.7188 29.4093 71.6347 29.9156C73.0359 26.4557 74.5911 23.9381 76.3006 22.3629C78.01 20.7876 79.6073 20 81.0925 20C82.914 20 83.8248 20.9142 83.8248 22.7426C83.8248 23.8397 83.5165 25.8228 82.9 28.692C82.3676 31.1392 82.1013 32.7567 82.1013 33.5443C82.1013 34.6695 82.5077 35.2321 83.3203 35.2321C83.8808 35.2321 84.5394 34.8945 85.296 34.2194C86.0806 33.5162 87.1175 32.391 88.4065 30.8439C88.7428 30.4501 89.1211 30.2532 89.5415 30.2532C89.9058 30.2532 90.186 30.4219 90.3822 30.7595C90.6064 31.097 90.7185 31.5612 90.7185 32.1519C90.7185 33.2771 90.4522 34.1491 89.9198 34.7679C88.7148 36.2588 87.4117 37.4824 86.0106 38.4388C84.6374 39.3952 83.0681 39.8734 81.3027 39.8734C79.8735 39.8734 78.7946 39.4655 78.066 38.6498C77.3374 37.8059 76.9731 36.5963 76.9731 35.0211C76.9731 34.2335 77.1693 32.827 77.5616 30.8017C77.9259 29.0295 78.108 27.8059 78.108 27.1308C78.108 26.6807 77.9539 26.4557 77.6457 26.4557C77.2814 26.4557 76.7629 26.9339 76.0904 27.8903C75.4178 28.8186 74.7453 30.0563 74.0727 31.6034C73.4002 33.1505 72.8537 34.782 72.4334 36.4979C72.1251 37.8481 71.7608 38.7482 71.3405 39.1983C70.9481 39.6484 70.3036 39.8734 69.4069 39.8734C68.4821 39.8734 67.7815 39.4374 67.3051 38.5654C66.8567 37.6653 66.6326 36.5823 66.6326 35.3165C66.6326 34.2475 66.7727 32.7004 67.0529 30.6751C67.2771 28.8748 67.3892 27.6934 67.3892 27.1308C67.3892 26.6807 67.2351 26.4557 66.9268 26.4557C66.5065 26.4557 65.974 26.962 65.3295 27.9747C64.685 28.9873 64.0544 30.2813 63.4379 31.8565C62.8494 33.4318 62.3731 34.9789 62.0087 36.4979C61.7005 37.82 61.3362 38.7201 60.9158 39.1983C60.5235 39.6484 59.893 39.8734 59.0243 39.8734Z" fill="#E02041"/>
<path d="M103.251 30.2532C103.615 30.2532 103.895 30.4219 104.091 30.7595C104.316 31.097 104.428 31.5612 104.428 32.1519C104.428 33.2771 104.161 34.1491 103.629 34.7679C102.424 36.2588 101.107 37.4824 99.6778 38.4388C98.2766 39.3952 96.6793 39.8734 94.8858 39.8734C92.4198 39.8734 90.5842 38.7482 89.3792 36.4979C88.2023 34.2475 87.6138 31.3361 87.6138 27.7637C87.6138 24.3319 88.0482 20.4219 88.9169 16.0338C89.8136 11.6456 91.1167 7.87623 92.8261 4.72574C94.5635 1.57525 96.6232 0 99.0052 0C100.35 0 101.401 0.632912 102.158 1.89874C102.942 3.13643 103.335 4.92264 103.335 7.25738C103.335 10.6048 102.41 14.4866 100.56 18.903C98.711 23.3193 96.2029 27.6934 93.0363 32.0253C93.2324 33.1786 93.5547 34.0084 94.0031 34.5148C94.4514 34.993 95.0399 35.2321 95.7685 35.2321C96.9175 35.2321 97.9263 34.9086 98.795 34.2616C99.6637 33.5865 100.771 32.4473 102.116 30.8439C102.452 30.4501 102.83 30.2532 103.251 30.2532ZM98.0804 4.17722C97.4359 4.17722 96.7073 5.34459 95.8946 7.67933C95.082 10.0141 94.3674 12.9114 93.7509 16.3713C93.1344 19.8312 92.7981 23.1505 92.742 26.3291C94.7317 23.038 96.315 19.7468 97.4919 16.4557C98.6689 13.1364 99.2574 10.1125 99.2574 7.38397C99.2574 5.24613 98.8651 4.17722 98.0804 4.17722Z" fill="#E02041"/>
<path d="M122.468 26.7089C122.832 26.7089 123.112 26.8917 123.308 27.2574C123.505 27.6231 123.603 28.0872 123.603 28.6498C123.603 30 123.196 30.8017 122.384 31.0549C120.702 31.6456 118.853 31.9831 116.835 32.0675C116.303 34.4304 115.252 36.3291 113.683 37.7637C112.113 39.1702 110.334 39.8734 108.344 39.8734C106.663 39.8734 105.22 39.4655 104.015 38.6498C102.838 37.834 101.941 36.7511 101.324 35.4008C100.708 34.0506 100.4 32.5879 100.4 31.0127C100.4 28.8748 100.806 26.9761 101.619 25.3165C102.431 23.6287 103.552 22.3207 104.981 21.3924C106.411 20.436 107.994 19.9578 109.731 19.9578C111.861 19.9578 113.57 20.7032 114.86 22.1941C116.177 23.6568 116.947 25.4712 117.171 27.6371C118.489 27.5527 120.058 27.2714 121.879 26.7932C122.103 26.737 122.3 26.7089 122.468 26.7089ZM108.68 35.4008C109.577 35.4008 110.348 35.0352 110.992 34.3038C111.665 33.5724 112.113 32.5176 112.337 31.1392C111.469 30.5485 110.796 29.775 110.32 28.8186C109.871 27.8622 109.647 26.8495 109.647 25.7806C109.647 25.3305 109.689 24.8804 109.773 24.4304H109.563C108.442 24.4304 107.503 24.9789 106.747 26.0759C106.018 27.1449 105.654 28.6639 105.654 30.6329C105.654 32.18 105.948 33.3615 106.537 34.1772C107.153 34.993 107.868 35.4008 108.68 35.4008Z" fill="#E02041"/>
<path d="M141.213 26.8354C141.297 26.8073 141.437 26.7932 141.633 26.7932C142.053 26.7932 142.376 26.9339 142.6 27.2152C142.824 27.4965 142.936 27.8762 142.936 28.3544C142.936 29.2264 142.768 29.9156 142.432 30.4219C142.095 30.9001 141.591 31.2518 140.918 31.4768C139.629 31.8987 138.256 32.1097 136.799 32.1097C135.566 32.1097 134.403 31.9409 133.31 31.6034C132.497 32.9255 131.601 34.2897 130.62 35.6962C129.499 37.2996 128.532 38.3966 127.719 38.9873C126.907 39.5781 125.982 39.8734 124.945 39.8734C123.796 39.8734 122.886 39.4233 122.213 38.5232C121.568 37.6231 121.162 36.2025 120.994 34.2616C120.658 30.3235 120.49 26.8776 120.49 23.924V22.4473C120.518 21.519 120.77 20.872 121.246 20.5063C121.723 20.1406 122.437 19.9578 123.39 19.9578C124.119 19.9578 124.651 20.1266 124.987 20.4641C125.352 20.7736 125.534 21.308 125.534 22.0675C125.534 25.3024 125.73 29.5077 126.122 34.6835C127.804 32.18 129.065 30.1828 129.905 28.692C129.485 27.8762 129.275 26.9058 129.275 25.7806C129.275 24.8242 129.485 23.8959 129.905 22.9958C130.326 22.0956 130.9 21.3643 131.629 20.8017C132.357 20.2391 133.184 19.9578 134.109 19.9578C134.921 19.9578 135.58 20.2532 136.084 20.8439C136.589 21.4065 136.841 22.2363 136.841 23.3333C136.841 24.5992 136.505 26.0478 135.832 27.6793C136.897 27.6231 138.312 27.4121 140.078 27.0464L141.213 26.8354Z" fill="#E02041"/>
<path d="M158.036 30.2532C158.4 30.2532 158.68 30.4219 158.876 30.7595C159.101 31.097 159.213 31.5612 159.213 32.1519C159.213 33.2771 158.946 34.1491 158.414 34.7679C157.377 36.0338 155.906 37.2011 154 38.27C152.123 39.339 150.105 39.8734 147.947 39.8734C145.005 39.8734 142.721 39.0717 141.096 37.4684C139.47 35.865 138.658 33.6709 138.658 30.8861C138.658 28.9451 139.064 27.1449 139.877 25.4852C140.689 23.7975 141.81 22.4613 143.239 21.4768C144.697 20.4923 146.336 20 148.158 20C149.783 20 151.086 20.4923 152.067 21.4768C153.048 22.4332 153.538 23.7412 153.538 25.4008C153.538 27.3418 152.837 29.0155 151.436 30.4219C150.063 31.8003 147.723 32.8973 144.416 33.7131C145.117 35.007 146.448 35.654 148.41 35.654C149.671 35.654 151.1 35.218 152.697 34.346C154.323 33.4458 155.724 32.2785 156.901 30.8439C157.237 30.4501 157.615 30.2532 158.036 30.2532ZM147.443 24.135C146.406 24.135 145.523 24.7398 144.795 25.9494C144.094 27.1589 143.744 28.6217 143.744 30.3376V30.4219C145.397 30.0281 146.7 29.4374 147.653 28.6498C148.606 27.8622 149.082 26.948 149.082 25.9072C149.082 25.3727 148.928 24.9508 148.62 24.6413C148.34 24.3038 147.947 24.135 147.443 24.135Z" fill="#E02041"/>
<path d="M172.772 25.7806C173.389 25.7806 173.907 26.0056 174.327 26.4557C174.776 26.8776 175 27.4121 175 28.0591C175 28.4248 174.916 28.8186 174.748 29.2405C174.299 30.2813 173.669 31.1533 172.856 31.8565C172.044 32.5598 171.147 32.9114 170.166 32.9114C169.381 32.9114 168.709 32.6301 168.148 32.0675C167.616 31.5049 167.35 30.7454 167.35 29.789C167.35 29.2546 167.378 28.6779 167.434 28.0591C167.49 27.609 167.518 27.2996 167.518 27.1308C167.518 26.9058 167.462 26.737 167.35 26.6245C167.266 26.512 167.154 26.4557 167.013 26.4557C166.621 26.4557 166.089 26.9339 165.416 27.8903C164.744 28.8186 164.071 30.0563 163.398 31.6034C162.726 33.1505 162.179 34.782 161.759 36.4979C161.451 37.8481 161.101 38.7482 160.708 39.1983C160.316 39.6484 159.671 39.8734 158.775 39.8734C157.71 39.8734 156.953 39.3108 156.505 38.1857C156.084 37.0605 155.874 35.2602 155.874 32.7848C155.874 29.128 156.393 25.654 157.429 22.3629C157.682 21.5471 158.088 20.9564 158.649 20.5907C159.237 20.1969 160.05 20 161.087 20C161.647 20 162.039 20.0703 162.263 20.211C162.488 20.3516 162.6 20.6188 162.6 21.0127C162.6 21.4627 162.39 22.4754 161.969 24.0506C161.689 25.1758 161.465 26.1603 161.297 27.0042C161.129 27.8481 160.988 28.8889 160.876 30.1266C161.801 27.7075 162.838 25.7384 163.987 24.2194C165.136 22.7004 166.257 21.6174 167.35 20.9705C168.443 20.3235 169.437 20 170.334 20C171.147 20 171.763 20.2391 172.184 20.7173C172.632 21.1674 172.856 21.8425 172.856 22.7426C172.856 23.2771 172.702 24.2897 172.394 25.7806H172.772Z" fill="#E02041"/>
</svg>
