<svg width="321" height="60" viewBox="0 0 321 60" fill="none" xmlns="http://www.w3.org/2000/svg">
<path d="M126.419 10.4856C127.523 10.6433 128.272 10.9786 128.667 11.4912C129.1 12.0039 129.317 12.6744 129.317 13.5026C129.317 16.2238 127.858 17.4858 124.94 17.2886L122.869 17.1112C120.542 16.914 118.215 16.7562 115.889 16.6379C113.601 16.5196 111.195 16.4604 108.671 16.4604H106.009C105.536 22.2973 105.043 27.6214 104.53 32.4328L114.705 32.2554C116.165 32.2554 117.131 32.5117 117.604 33.0244C118.117 33.5371 118.373 34.2273 118.373 35.0949C118.373 36.4358 117.979 37.5006 117.19 38.2894C116.401 39.0387 115.277 39.4134 113.818 39.4134H103.702L103.347 41.9571C102.519 48.4644 100.744 53.0983 98.0232 55.859C95.3414 58.6197 91.6342 60 86.9017 60C84.2199 60 81.755 59.4281 79.507 58.2844C77.2591 57.1013 75.6027 55.6815 74.5378 54.0251C74.104 53.3547 73.8871 52.5462 73.8871 51.5997C73.8871 50.6532 74.104 49.825 74.5378 49.1151C75.0111 48.4052 75.5829 48.0503 76.2534 48.0503C76.7266 48.0503 77.1802 48.208 77.614 48.5235C78.0873 48.839 78.6788 49.4503 79.3887 50.3574C81.2817 52.842 83.6283 54.0843 86.4284 54.0843C88.6764 54.0843 90.5497 53.1772 92.0483 51.3631C93.5864 49.5095 94.5723 46.6108 95.0062 42.667L95.3611 39.4134H92.5216C91.6145 39.4134 90.8257 39.157 90.1553 38.6443C89.5243 38.1316 89.2088 37.402 89.2088 36.4555C89.2088 35.2329 89.5243 34.3061 90.1553 33.6751C90.7863 33.0047 91.7131 32.6695 92.9357 32.6695C94.0399 32.6695 95.1245 32.6497 96.1893 32.6103C96.6626 28.2721 97.1753 23.0071 97.7274 16.8154C93.4681 17.2098 90.4708 17.8999 88.7355 18.8859C87.0002 19.8718 86.1326 21.331 86.1326 23.2635C86.1326 24.6044 86.527 25.8861 87.3158 27.1087C87.5524 27.4636 87.6707 27.8186 87.6707 28.1735C87.6707 28.8834 87.2763 29.5144 86.4876 30.0665C85.6988 30.5792 84.8114 30.8356 83.8255 30.8356C82.7607 30.8356 81.8536 30.5201 81.1043 29.8891C80.631 29.4947 80.1775 28.6862 79.7437 27.4636C79.3098 26.2411 79.0929 24.8805 79.0929 23.3818C79.0929 18.4915 81.5972 14.9421 86.6059 12.7335C91.6539 10.525 99.0091 9.42075 108.671 9.42075C115.376 9.42075 121.292 9.7757 126.419 10.4856Z" fill="#E02041"/>
<path d="M126.65 28.0552C124.994 28.0552 123.751 27.6806 122.923 26.9312C122.095 26.1425 121.681 25.0579 121.681 23.6776C121.681 22.2973 122.213 21.1536 123.278 20.2465C124.382 19.3 125.743 18.8267 127.36 18.8267C128.819 18.8267 130.002 19.1817 130.909 19.8915C131.816 20.6014 132.27 21.6071 132.27 22.9086C132.27 24.4861 131.757 25.7481 130.732 26.6946C129.707 27.6017 128.346 28.0552 126.65 28.0552ZM126.177 59.8225C123.613 59.8225 121.74 58.9155 120.557 57.1013C119.413 55.2872 118.841 52.8814 118.841 49.8842C118.841 48.1094 119.058 45.8418 119.492 43.0811C119.965 40.281 120.557 37.6781 121.267 35.2724C121.622 34.0104 122.095 33.1427 122.687 32.6695C123.278 32.1962 124.225 31.9596 125.526 31.9596C127.537 31.9596 128.543 32.63 128.543 33.9709C128.543 34.9569 128.168 37.2443 127.419 40.8331C126.473 45.1713 125.999 48.1094 125.999 49.6475C125.999 50.8307 126.157 51.7377 126.473 52.3687C126.788 52.9998 127.321 53.3153 128.07 53.3153C128.78 53.3153 129.667 52.8223 130.732 51.8363C131.797 50.8504 133.217 49.2926 134.991 47.1629C135.464 46.6108 135.997 46.3347 136.588 46.3347C137.101 46.3347 137.496 46.5714 137.772 47.0446C138.087 47.5179 138.245 48.1686 138.245 48.9968C138.245 50.5743 137.87 51.7969 137.121 52.6645C133.217 57.4365 129.568 59.8225 126.177 59.8225Z" fill="#E02041"/>
<path d="M155.879 46.3347C156.392 46.3347 156.786 46.5714 157.062 47.0446C157.378 47.5179 157.536 48.1686 157.536 48.9968C157.536 50.5743 157.161 51.7969 156.412 52.6645C154.716 54.7547 152.862 56.4703 150.851 57.8112C148.879 59.1521 146.631 59.8225 144.107 59.8225C140.636 59.8225 138.053 58.245 136.357 55.09C134.701 51.9349 133.873 47.8531 133.873 42.8445C133.873 38.033 134.484 32.5511 135.707 26.3988C136.969 20.2465 138.803 14.9618 141.208 10.5447C143.653 6.12768 146.552 3.91915 149.904 3.91915C151.797 3.91915 153.276 4.80651 154.341 6.58122C155.445 8.31649 155.997 10.8208 155.997 14.0942C155.997 18.7873 154.696 24.2297 152.093 30.4215C149.49 36.6133 145.961 42.7459 141.504 48.8193C141.78 50.4363 142.234 51.5997 142.865 52.3096C143.496 52.98 144.324 53.3153 145.349 53.3153C146.966 53.3153 148.386 52.8617 149.609 51.9546C150.831 51.0081 152.389 49.4109 154.282 47.1629C154.755 46.6108 155.288 46.3347 155.879 46.3347ZM148.603 9.7757C147.696 9.7757 146.67 11.4124 145.527 14.6857C144.383 17.9591 143.377 22.0212 142.51 26.8721C141.642 31.7229 141.169 36.3766 141.09 40.8331C143.89 36.2189 146.118 31.6046 147.775 26.9904C149.431 22.3367 150.259 18.0971 150.259 14.2716C150.259 11.2743 149.707 9.7757 148.603 9.7757Z" fill="#E02041"/>
<path d="M156.954 59.8225C155.456 59.8225 154.391 59.0338 153.76 57.4562C153.168 55.8787 152.872 53.3547 152.872 49.8842C152.872 44.7572 153.602 39.8866 155.061 35.2724C155.416 34.1287 155.988 33.3005 156.777 32.7878C157.605 32.2356 158.749 31.9596 160.208 31.9596C160.997 31.9596 161.549 32.0582 161.864 32.2554C162.18 32.4525 162.337 32.8272 162.337 33.3793C162.337 34.0104 162.042 35.4301 161.45 37.6387C161.056 39.2162 160.74 40.5965 160.504 41.7796C160.267 42.9233 160.07 44.3628 159.912 46.0981C160.977 43.0219 162.239 40.419 163.698 38.2894C165.197 36.1597 166.715 34.5822 168.253 33.5568C169.831 32.492 171.31 31.9596 172.69 31.9596C174.07 31.9596 175.037 32.2751 175.589 32.9061C176.18 33.5371 176.476 34.5033 176.476 35.8048C176.476 37.0668 176.101 39.3542 175.352 42.667C175.037 44.0868 174.82 45.1516 174.701 45.8615C176.673 41.0106 178.862 37.4809 181.268 35.2724C183.673 33.0638 185.921 31.9596 188.012 31.9596C190.575 31.9596 191.857 33.2413 191.857 35.8048C191.857 37.3429 191.423 40.1232 190.555 44.1459C189.806 47.577 189.431 49.8447 189.431 50.949C189.431 52.5265 190.003 53.3153 191.147 53.3153C191.936 53.3153 192.862 52.842 193.927 51.8955C195.032 50.9095 196.491 49.332 198.305 47.1629C198.778 46.6108 199.311 46.3347 199.902 46.3347C200.415 46.3347 200.809 46.5714 201.085 47.0446C201.401 47.5179 201.559 48.1686 201.559 48.9968C201.559 50.5743 201.184 51.7969 200.435 52.6645C198.739 54.7547 196.905 56.4703 194.933 57.8112C193.001 59.1521 190.792 59.8225 188.307 59.8225C186.296 59.8225 184.778 59.2507 183.752 58.107C182.727 56.9238 182.214 55.228 182.214 53.0195C182.214 51.9152 182.49 49.9433 183.042 47.1038C183.555 44.6192 183.811 42.9036 183.811 41.9571C183.811 41.3261 183.595 41.0106 183.161 41.0106C182.648 41.0106 181.918 41.681 180.972 43.0219C180.025 44.3234 179.079 46.0587 178.132 48.2278C177.186 50.3968 176.417 52.6842 175.825 55.09C175.391 56.983 174.879 58.245 174.287 58.876C173.735 59.507 172.828 59.8225 171.566 59.8225C170.265 59.8225 169.279 59.2112 168.608 57.9887C167.977 56.7266 167.662 55.2083 167.662 53.4336C167.662 51.9349 167.859 49.7658 168.253 46.9263C168.569 44.4023 168.726 42.7459 168.726 41.9571C168.726 41.3261 168.51 41.0106 168.076 41.0106C167.484 41.0106 166.735 41.7205 165.828 43.1402C164.921 44.56 164.033 46.3742 163.166 48.5827C162.337 50.7912 161.667 52.9603 161.154 55.09C160.721 56.9436 160.208 58.2056 159.616 58.876C159.064 59.507 158.177 59.8225 156.954 59.8225Z" fill="#E02041"/>
<path d="M219.196 46.3347C219.708 46.3347 220.103 46.5714 220.379 47.0446C220.694 47.5179 220.852 48.1686 220.852 48.9968C220.852 50.5743 220.477 51.7969 219.728 52.6645C218.032 54.7547 216.179 56.4703 214.167 57.8112C212.195 59.1521 209.947 59.8225 207.423 59.8225C203.953 59.8225 201.37 58.245 199.674 55.09C198.017 51.9349 197.189 47.8531 197.189 42.8445C197.189 38.033 197.801 32.5511 199.023 26.3988C200.285 20.2465 202.119 14.9618 204.525 10.5447C206.97 6.12768 209.869 3.91915 213.221 3.91915C215.114 3.91915 216.593 4.80651 217.658 6.58122C218.762 8.31649 219.314 10.8208 219.314 14.0942C219.314 18.7873 218.013 24.2297 215.41 30.4215C212.807 36.6133 209.277 42.7459 204.821 48.8193C205.097 50.4363 205.55 51.5997 206.181 52.3096C206.812 52.98 207.64 53.3153 208.666 53.3153C210.283 53.3153 211.702 52.8617 212.925 51.9546C214.148 51.0081 215.705 49.4109 217.598 47.1629C218.072 46.6108 218.604 46.3347 219.196 46.3347ZM211.919 9.7757C211.012 9.7757 209.987 11.4124 208.843 14.6857C207.699 17.9591 206.694 22.0212 205.826 26.8721C204.959 31.7229 204.485 36.3766 204.406 40.8331C207.207 36.2189 209.435 31.6046 211.091 26.9904C212.748 22.3367 213.576 18.0971 213.576 14.2716C213.576 11.2743 213.024 9.7757 211.919 9.7757Z" fill="#E02041"/>
<path d="M246.241 41.3655C246.753 41.3655 247.148 41.6219 247.424 42.1346C247.7 42.6473 247.838 43.298 247.838 44.0868C247.838 45.9798 247.266 47.1038 246.122 47.4587C243.756 48.2869 241.153 48.7602 238.314 48.8785C237.564 52.1913 236.085 54.8533 233.877 56.8647C231.668 58.8366 229.164 59.8225 226.364 59.8225C223.998 59.8225 221.967 59.2507 220.271 58.107C218.614 56.9633 217.352 55.4449 216.485 53.5519C215.617 51.6589 215.183 49.6081 215.183 47.3996C215.183 44.4023 215.755 41.7402 216.899 39.4134C218.042 37.0471 219.62 35.2132 221.631 33.9118C223.643 32.5709 225.871 31.9004 228.316 31.9004C231.313 31.9004 233.719 32.9455 235.533 35.0357C237.387 37.0865 238.471 39.6303 238.787 42.667C240.64 42.5487 242.849 42.1543 245.412 41.4839C245.728 41.405 246.004 41.3655 246.241 41.3655ZM226.837 53.5519C228.099 53.5519 229.184 53.0392 230.091 52.0138C231.037 50.9884 231.668 49.5095 231.984 47.577C230.761 46.7488 229.815 45.6643 229.144 44.3234C228.513 42.9825 228.198 41.5627 228.198 40.0641C228.198 39.4331 228.257 38.8021 228.375 38.1711H228.079C226.502 38.1711 225.181 38.9401 224.116 40.4782C223.09 41.9768 222.578 44.1065 222.578 46.8671C222.578 49.0362 222.992 50.6926 223.82 51.8363C224.688 52.98 225.693 53.5519 226.837 53.5519Z" fill="#E02041"/>
<path d="M272.621 41.543C272.739 41.5036 272.936 41.4839 273.212 41.4839C273.804 41.4839 274.258 41.681 274.573 42.0754C274.889 42.4698 275.046 43.0022 275.046 43.6727C275.046 44.8952 274.81 45.8615 274.336 46.5714C273.863 47.2418 273.153 47.7348 272.207 48.0503C270.393 48.6419 268.46 48.9376 266.409 48.9376C264.674 48.9376 263.037 48.701 261.499 48.2278C260.356 50.0813 259.094 51.9941 257.713 53.966C256.136 56.214 254.775 57.752 253.632 58.5802C252.488 59.4084 251.186 59.8225 249.727 59.8225C248.11 59.8225 246.828 59.1915 245.882 57.9295C244.975 56.6675 244.403 54.6759 244.166 51.9546C243.693 46.4333 243.457 41.6022 243.457 37.4612V35.3907C243.496 34.0892 243.851 33.1822 244.521 32.6695C245.192 32.1568 246.197 31.9004 247.538 31.9004C248.564 31.9004 249.313 32.137 249.786 32.6103C250.299 33.0441 250.555 33.7934 250.555 34.8583C250.555 39.3936 250.831 45.2896 251.384 52.5462C253.75 49.0362 255.525 46.2361 256.708 44.1459C256.116 43.0022 255.82 41.6416 255.82 40.0641C255.82 38.7232 256.116 37.4217 256.708 36.1597C257.299 34.8977 258.108 33.8723 259.133 33.0836C260.159 32.2948 261.322 31.9004 262.623 31.9004C263.767 31.9004 264.694 32.3145 265.404 33.1427C266.114 33.9315 266.469 35.0949 266.469 36.633C266.469 38.4077 265.995 40.4387 265.049 42.7262C266.547 42.6473 268.539 42.3515 271.024 41.8388L272.621 41.543Z" fill="#E02041"/>
<path d="M296.297 46.3347C296.809 46.3347 297.204 46.5714 297.48 47.0446C297.795 47.5179 297.953 48.1686 297.953 48.9968C297.953 50.5743 297.578 51.7969 296.829 52.6645C295.37 54.4392 293.299 56.0759 290.618 57.5746C287.975 59.0732 285.136 59.8225 282.099 59.8225C277.958 59.8225 274.744 58.6985 272.456 56.4506C270.169 54.2026 269.025 51.1264 269.025 47.2221C269.025 44.5009 269.597 41.9768 270.741 39.65C271.885 37.2837 273.462 35.4104 275.473 34.0301C277.524 32.6497 279.831 31.9596 282.395 31.9596C284.682 31.9596 286.516 32.6497 287.896 34.0301C289.277 35.371 289.967 37.2048 289.967 39.5317C289.967 42.2529 288.981 44.5995 287.009 46.5714C285.077 48.5038 281.783 50.0419 277.13 51.1856C278.116 52.9998 279.989 53.9068 282.75 53.9068C284.524 53.9068 286.536 53.2955 288.784 52.073C291.071 50.8109 293.043 49.1743 294.699 47.1629C295.173 46.6108 295.705 46.3347 296.297 46.3347ZM281.389 37.757C279.93 37.757 278.688 38.6049 277.662 40.3007C276.676 41.9966 276.183 44.0473 276.183 46.453V46.5714C278.51 46.0192 280.344 45.191 281.685 44.0868C283.026 42.9825 283.696 41.7008 283.696 40.2416C283.696 39.4922 283.479 38.9007 283.045 38.4668C282.651 37.9936 282.099 37.757 281.389 37.757Z" fill="#E02041"/>
<path d="M317.036 40.0641C317.903 40.0641 318.633 40.3796 319.225 41.0106C319.856 41.6022 320.171 42.3515 320.171 43.2586C320.171 43.7713 320.053 44.3234 319.816 44.915C319.185 46.3742 318.298 47.5967 317.154 48.5827C316.01 49.5686 314.748 50.0616 313.368 50.0616C312.264 50.0616 311.317 49.6672 310.529 48.8785C309.779 48.0897 309.405 47.0249 309.405 45.684C309.405 44.9347 309.444 44.1262 309.523 43.2586C309.602 42.6276 309.641 42.1937 309.641 41.9571C309.641 41.6416 309.562 41.405 309.405 41.2472C309.286 41.0895 309.128 41.0106 308.931 41.0106C308.379 41.0106 307.63 41.681 306.683 43.0219C305.737 44.3234 304.79 46.0587 303.844 48.2278C302.897 50.3968 302.128 52.6842 301.537 55.09C301.103 56.983 300.61 58.245 300.058 58.876C299.506 59.507 298.599 59.8225 297.337 59.8225C295.838 59.8225 294.773 59.0338 294.142 57.4562C293.55 55.8787 293.255 53.3547 293.255 49.8842C293.255 44.7572 293.984 39.8866 295.443 35.2724C295.798 34.1287 296.37 33.3005 297.159 32.7878C297.987 32.2356 299.131 31.9596 300.59 31.9596C301.379 31.9596 301.931 32.0582 302.247 32.2554C302.562 32.4525 302.72 32.8272 302.72 33.3793C302.72 34.0104 302.424 35.4301 301.832 37.6387C301.438 39.2162 301.123 40.5965 300.886 41.7796C300.649 42.9628 300.452 44.422 300.294 46.1573C301.596 42.7656 303.055 40.0049 304.672 37.8753C306.289 35.7456 307.866 34.2273 309.405 33.3202C310.943 32.4131 312.343 31.9596 313.605 31.9596C314.748 31.9596 315.616 32.2948 316.208 32.9652C316.839 33.5963 317.154 34.5428 317.154 35.8048C317.154 36.5541 316.937 37.9739 316.503 40.0641H317.036Z" fill="#E02041"/>
<path d="M50.0453 28.5016C54.1909 29.7165 56.972 33.2916 56.6924 37.1166C55.3752 35.6377 53.3637 34.3612 50.9269 33.5218L50.0453 28.5016ZM62.8761 34.2972L66.5422 13.4271C66.5757 13.2387 66.5098 13.1225 66.5144 13.119C59.8408 9.39163 52.2891 7.42099 44.6762 7.42099C44.4902 7.42099 44.303 7.44076 44.1158 7.44308C42.504 5.87703 40.4497 4.78882 38.1551 4.42027C35.9725 4.06916 33.7588 3.89128 31.5485 3.80176C32.7028 2.17991 34.3769 0.984738 36.3746 0.662692C39.1372 0.219735 41.9136 0 44.6773 0C53.5347 0 62.2741 2.2578 70.11 6.6339C72.9027 8.19413 74.3989 11.4495 73.8247 14.7164L70.1586 35.5866C68.5144 44.948 54.407 52.1051 46.5364 52.1051C46.1216 52.1051 45.7565 52.0516 45.3798 52.012C46.9419 50.0263 48.7236 47.3058 49.9437 44.1551C55.4445 42.646 62.1979 38.1536 62.8761 34.2972ZM51.6051 18.3159C51.6895 17.8369 51.8628 17.4009 52.0754 16.9905C53.0286 18.0264 54.4636 18.8216 56.1563 19.1204C57.8489 19.4204 59.4688 19.1669 60.7178 18.5193C60.7779 18.9774 60.7917 19.4471 60.7074 19.9261C60.2637 22.449 57.8674 24.1336 55.3533 23.6895C52.8403 23.2454 51.1615 20.8388 51.6051 18.3159ZM3.83621 14.0561C14.117 8.31505 25.9541 6.21885 37.5716 8.08601C40.727 8.59291 43.2423 11.139 43.8154 14.406L47.4815 35.2762C49.2597 45.3968 36.4728 58.0949 29.1903 59.3831C21.9078 60.6724 5.56585 53.1293 3.78769 43.0087L0.121593 22.1386C-0.452641 18.8705 1.04361 15.6151 3.83621 14.0561ZM35.4064 25.3102C34.9627 22.7873 32.5664 21.1027 30.0523 21.548C27.5381 21.9932 25.8605 24.3987 26.303 26.9216C26.3873 27.4006 26.5606 27.8366 26.7732 28.247C27.7264 27.2111 29.1615 26.4158 30.8541 26.1171C32.5468 25.8171 34.1667 26.0706 35.4156 26.7181C35.4769 26.2589 35.4907 25.7892 35.4064 25.3102ZM27.2643 48.4184C33.6976 47.2802 38.0696 41.5276 37.552 35.2924C35.1719 38.2618 31.0575 40.6602 26.0569 41.545C21.0563 42.4298 16.3723 41.588 13.1245 39.6151C14.7628 45.6537 20.8322 49.5566 27.2643 48.4184ZM12.2094 30.8233C13.1626 29.7874 14.5988 28.9922 16.2914 28.6934C17.9841 28.3935 19.604 28.6469 20.853 29.2945C20.913 28.8364 20.9269 28.3667 20.8426 27.8877C20.3989 25.3648 18.0026 23.6802 15.4884 24.1243C12.9754 24.5696 11.2966 26.9751 11.7392 29.4979C11.8235 29.9781 11.9968 30.4141 12.2094 30.8233Z" fill="#E02041"/>
</svg>
